<svg width="841" height="841" viewBox="0 0 841 841" fill="none" xmlns="http://www.w3.org/2000/svg">
<rect x="15.678" y="15.678" width="809.002" height="809.002" rx="404.501" stroke="white" stroke-width="30.644"/>
<path fill-rule="evenodd" clip-rule="evenodd" d="M420.179 55.5151C219.909 55.5151 57.5581 217.866 57.5581 418.136C57.5581 420.215 57.5756 422.289 57.6104 424.359C74.4566 418.25 94.6377 413.159 117.539 411.017C120.173 410.321 122.947 409.565 125.84 408.752C131.979 421.366 139.908 433.397 149.55 443.317C158.546 452.573 163.002 464.082 165.56 477.244C167.283 486.107 168.066 495.098 168.883 504.47C169.315 509.421 169.756 514.478 170.349 519.679C172.008 534.218 174.847 549.192 182.607 562.366C190.503 575.769 203.153 586.755 223.355 593.964C261.979 607.749 295.35 610.443 321.908 603.577C348.672 596.658 368.146 580.096 378.507 556.437C378.833 555.693 379.151 554.946 379.463 554.198C360.519 594.382 313.478 609.757 246.421 583.707C205.823 567.935 203.101 534.078 200.383 500.275C198.448 476.21 196.516 452.173 180.921 434.707C143.421 392.707 134.921 309.207 164.421 317.207C187.501 323.466 241.473 335.654 267.224 341.333C273.834 336.391 280.266 331.183 286.421 325.707C288.717 323.664 290.72 321.713 292.446 319.85C314.153 303.732 348.644 286.637 387.203 290.66C420.771 294.162 447.48 317.547 470.685 337.864C492.437 356.909 511.109 373.258 529.464 368.005C567.401 357.15 567.401 327.297 548.433 270.306C529.464 213.314 547.078 153.609 574.175 135.969C580.949 130.541 609.402 154.966 602.627 163.107C602.015 163.843 601.26 164.689 600.404 165.647C591.79 175.293 573.057 196.27 589.079 229.597C590.946 233.482 593.529 238.251 596.52 243.772L596.521 243.774C621.738 290.328 675.917 390.352 574.175 464.348C556.045 477.534 537.331 489.514 518.624 501.057C525.336 514.115 523.531 521.006 514.433 520.299C491.62 524.716 474.75 530.218 463.385 534.973C385.84 583.937 319.218 638.895 309.975 760.161C309.886 761.335 309.786 762.485 309.676 763.612C344.515 774.746 381.645 780.757 420.179 780.757C620.449 780.757 782.8 618.406 782.8 418.136C782.8 217.866 620.449 55.5151 420.179 55.5151ZM379.099 387.85C385.848 394.983 404.309 405.456 424.166 390.285C448.988 371.322 344.77 349.995 379.099 387.85Z" fill="white"/>
</svg>
